<svg width="36" height="40" viewBox="0 0 36 40" fill="none" xmlns="http://www.w3.org/2000/svg">
<path d="M21.2211 1.20013L34.799 14.778L35.9993 13.5779L22.4214 0L21.2211 1.20013Z" fill="#5221E6"/>
<g filter="url(#filter0_d)">
<path fill-rule="evenodd" clip-rule="evenodd" d="M23.2336 7.60133C22.4975 6.86522 21.3874 6.65144 20.4305 7.06151L11.0071 11.1001C9.8941 11.5771 9.03594 12.5059 8.65549 13.6597C7.76246 16.3682 6.60708 19.9468 5.67428 23.0059C5.20815 24.5346 4.79562 25.9401 4.49892 27.0447C4.35075 27.5963 4.22936 28.0807 4.14439 28.4716C4.06526 28.8358 4 29.1944 4 29.4529V29.8044L6.19436 31.9988H6.54586C6.80447 31.9988 7.16311 31.9336 7.52722 31.8545C7.91819 31.7695 8.40255 31.6481 8.95417 31.4999C10.0588 31.2033 11.4642 30.7907 12.9929 30.3246C16.052 29.3918 19.6306 28.2363 22.3392 27.3434C23.493 26.9629 24.4217 26.1048 24.8988 24.9917L28.9374 15.5683C29.3474 14.6115 29.1336 13.5013 28.3975 12.7652L23.2336 7.60133ZM21.0992 8.62152C21.4181 8.48483 21.7881 8.5561 22.0335 8.80147L27.1973 13.9654C27.4428 14.2107 27.5141 14.5808 27.3773 14.8997L23.3387 24.3232C23.0518 24.9924 22.4955 25.5046 21.8076 25.7314C19.1052 26.6224 15.5399 27.7735 12.4978 28.701C10.9759 29.1652 9.59147 29.5714 8.51389 29.8608C7.97444 30.0057 7.51965 30.1192 7.16676 30.196C7.09215 30.2121 7.02327 30.2265 6.9601 30.2389L15.6316 21.5674C16.5779 22.0195 17.7457 21.8535 18.5295 21.0697C19.5237 20.0755 19.5237 18.4636 18.5295 17.4694C17.5353 16.4751 15.9233 16.4751 14.9291 17.4694C14.1453 18.2532 13.9794 19.421 14.4315 20.3672L5.7599 29.0388C5.77238 28.9756 5.78668 28.9067 5.80291 28.8321C5.87961 28.4792 5.99315 28.0243 6.13806 27.485C6.42749 26.4074 6.83366 25.0229 7.29772 23.501C8.22533 20.4589 9.37634 16.8935 10.2674 14.1912C10.4942 13.5034 11.0064 12.947 11.6757 12.6601L21.0992 8.62152Z" fill="#5221E6"/>
</g>
<defs>
<filter id="filter0_d" x="0" y="6.85559" width="33.1432" height="33.1432" filterUnits="userSpaceOnUse" color-interpolation-filters="sRGB">
<feFlood flood-opacity="0" result="BackgroundImageFix"/>
<feColorMatrix in="SourceAlpha" type="matrix" values="0 0 0 0 0 0 0 0 0 0 0 0 0 0 0 0 0 0 127 0"/>
<feOffset dy="4"/>
<feGaussianBlur stdDeviation="2"/>
<feColorMatrix type="matrix" values="0 0 0 0 0 0 0 0 0 0 0 0 0 0 0 0 0 0 0.25 0"/>
<feBlend mode="normal" in2="BackgroundImageFix" result="effect1_dropShadow"/>
<feBlend mode="normal" in="SourceGraphic" in2="effect1_dropShadow" result="shape"/>
</filter>
</defs>
</svg>
